<svg width="1600" height="900" viewBox="0 0 1600 900" fill="none" xmlns="http://www.w3.org/2000/svg">
<rect width="1600" height="900" fill="url(#bg)"/>
<circle cx="1320" cy="170" r="240" fill="url(#glow1)" fill-opacity="0.7"/>
<circle cx="260" cy="760" r="280" fill="url(#glow2)" fill-opacity="0.6"/>
<rect x="120" y="170" width="620" height="420" rx="36" fill="rgba(255,255,255,0.08)" stroke="rgba(255,255,255,0.18)"/>
<rect x="170" y="240" width="180" height="120" rx="20" fill="rgba(255,255,255,0.10)"/>
<rect x="390" y="240" width="280" height="28" rx="14" fill="rgba(255,255,255,0.24)"/>
<rect x="390" y="290" width="220" height="22" rx="11" fill="rgba(255,255,255,0.14)"/>
<rect x="390" y="332" width="170" height="22" rx="11" fill="rgba(255,255,255,0.10)"/>
<rect x="170" y="410" width="500" height="22" rx="11" fill="rgba(255,255,255,0.14)"/>
<rect x="170" y="454" width="420" height="22" rx="11" fill="rgba(255,255,255,0.10)"/>
<rect x="170" y="508" width="160" height="48" rx="24" fill="#8B5CF6"/>
<rect x="350" y="508" width="160" height="48" rx="24" fill="rgba(255,255,255,0.10)" stroke="rgba(255,255,255,0.18)"/>
<path d="M1070 610C1070 569.131 1103.13 536 1144 536H1320C1360.87 536 1394 569.131 1394 610V664C1394 704.869 1360.87 738 1320 738H1144C1103.13 738 1070 704.869 1070 664V610Z" fill="rgba(255,255,255,0.08)" stroke="rgba(255,255,255,0.18)"/>
<rect x="1124" y="586" width="216" height="26" rx="13" fill="rgba(255,255,255,0.18)"/>
<rect x="1124" y="630" width="160" height="20" rx="10" fill="rgba(255,255,255,0.10)"/>
<rect x="1124" y="666" width="104" height="34" rx="17" fill="#38BDF8"/>
<path d="M1190 316C1234 256 1324 256 1368 316" stroke="#7DD3FC" stroke-width="18" stroke-linecap="round"/>
<path d="M1218 370C1248 332 1310 332 1340 370" stroke="#C084FC" stroke-width="16" stroke-linecap="round"/>
<path d="M1252 420C1267 402 1291 402 1306 420" stroke="white" stroke-width="14" stroke-linecap="round"/>
<circle cx="1279" cy="465" r="16" fill="white"/>
<defs>
<linearGradient id="bg" x1="0" y1="0" x2="1600" y2="900">
<stop stop-color="#07111F"/>
<stop offset="0.5" stop-color="#0A1830"/>
<stop offset="1" stop-color="#121A2C"/>
</linearGradient>
<radialGradient id="glow1" cx="0" cy="0" r="1" gradientUnits="userSpaceOnUse" gradientTransform="translate(1320 170) rotate(90) scale(240)">
<stop stop-color="#38BDF8"/>
<stop offset="1" stop-color="#38BDF8" stop-opacity="0"/>
</radialGradient>
<radialGradient id="glow2" cx="0" cy="0" r="1" gradientUnits="userSpaceOnUse" gradientTransform="translate(260 760) rotate(90) scale(280)">
<stop stop-color="#8B5CF6"/>
<stop offset="1" stop-color="#8B5CF6" stop-opacity="0"/>
</radialGradient>
</defs>
</svg>
